<svg xmlns="http://www.w3.org/2000/svg" width="192" height="192" viewBox="0 0 192 192">
  <rect width="192" height="192" fill="#EF539E" rx="32"/>
  <g transform="translate(96,96)">
    <svg xmlns="http://www.w3.org/2000/svg" width="128" height="128" x="-64" y="-64" viewBox="0 0 60 60" fill="white">
      <path d="M30,0.667C13.801,0.667,0.667,13.801,0.667,30S13.801,59.333,30,59.333S59.333,46.199,59.333,30
      S46.199,0.667,30,0.667z M27.995,8.492c3.712,0,6.731,3.02,6.731,6.73s-3.02,6.73-6.731,6.73c-3.711,0-6.729-3.02-6.729-6.73
      S24.284,8.492,27.995,8.492z M46.23,34.977c-0.039,0.053-0.086,0.098-0.122,0.152c-0.984,1.508-7.896,4.289-16.762-0.291
      c-1.435-0.74-3.192-0.178-3.932,1.252c-0.739,1.434-0.179,3.193,1.254,3.932c4.363,2.254,8.591,3.154,12.296,3.154
      c0.318,0,0.63-0.01,0.938-0.021c-3.407,3.053-8.004,5.945-13.972,8.354c-26.798-25.283-7.564-30.904,0-28.311
      c0.016-0.01,0.029-0.02,0.044-0.031c0.648,0.166,1.322,0.264,2.02,0.264c3.209,0,5.984-1.855,7.333-4.545
      C45.365,16.91,50.745,25.398,46.23,34.977z"/>
      <circle cx="41.12" cy="31.995" r="3.622"/>
      <path d="M41.12,35.617c-2.001,0-3.622-1.621-3.622-3.621c0-2.002,1.621-3.623,3.622-3.623s3.623,1.621,3.623,3.623
      C44.743,33.996,43.121,35.617,41.12,35.617z"/>
    </svg>
  </g>
</svg>
