<?xml version="1.0" encoding="utf-8"?>
<!-- Generator: Adobe Illustrator 15.0.0, SVG Export Plug-In . SVG Version: 6.00 Build 0)  -->
<!DOCTYPE svg PUBLIC "-//W3C//DTD SVG 1.1//EN" "http://www.w3.org/Graphics/SVG/1.1/DTD/svg11.dtd">
<svg version="1.1" xmlns="http://www.w3.org/2000/svg" xmlns:xlink="http://www.w3.org/1999/xlink" x="0px" y="0px" width="60px"
	 height="60px" viewBox="0 0 60 60" enable-background="new 0 0 60 60" xml:space="preserve">
<g id="Layer_3" display="none">
	<rect y="-5" display="inline" fill="#BCBEC0" width="60" height="70"/>
</g>
<g id="back" display="none">
	<g id="logo" display="inline">
		<g>
			<path fill="#5A83B9" d="M26.646,2.234c4.798-0.507,9.11,2.922,9.744,7.675c0.021-0.247,0.037-0.495,0.037-0.747
				c0-4.907-3.992-8.898-8.899-8.898s-8.901,3.991-8.901,8.898c0,0.396,0.036,0.782,0.087,1.166
				C19.065,6.161,22.337,2.687,26.646,2.234z"/>
			<path fill="#5A83B9" d="M49.668,32.108c0,2.242-1.541,4.119-3.623,4.64c0.513,0.122,1.055,0.166,1.609,0.105
				c2.638-0.276,4.544-2.632,4.268-5.26c-0.276-2.633-2.633-4.541-5.271-4.265c-0.227,0.024-0.446,0.069-0.662,0.123
				C48.098,27.954,49.668,29.844,49.668,32.108z"/>
			<path fill="#5A83B9" d="M25.964,22.626c0.018-0.018,0.036-0.034,0.053-0.048c0.876,0.128,1.776,0.161,2.693,0.065
				c4.218-0.443,7.612-3.268,9.014-6.99c2.652-0.816,5.104-1.019,7.292-0.723c-2.253-0.636-4.873-0.733-7.792-0.158
				c-1.783,3.556-5.456,6.008-9.696,6.008c-0.923,0-1.816-0.13-2.671-0.344c-0.021,0.014-0.04,0.024-0.061,0.038
				c-10-3.428-35.43,4.004,0,37.434c0.582-0.234,1.133-0.479,1.692-0.72C-7.363,29.703,15.975,20.332,25.964,22.626z"/>
			<path fill="#5A83B9" d="M29.258,44.645c4.832,1.887,9.423,2.633,13.56,2.602c0.148-0.127,0.308-0.256,0.453-0.385
				c-0.408,0.018-0.821,0.028-1.241,0.028c-4.291,0-9.111-0.912-14.119-3.141C28.282,44.128,28.73,44.439,29.258,44.645z"/>
		</g>
		<g>
			<path fill="#EF539E" d="M27.527,18.063c-4.513,0-8.241-3.379-8.814-7.734c-0.047,0.553-0.047,1.114,0.014,1.685
				c0.511,4.882,4.9,8.436,9.779,7.922c4.881-0.513,8.435-4.901,7.921-9.783c-0.009-0.082-0.026-0.163-0.037-0.242
				C36.009,14.468,32.182,18.063,27.527,18.063z"/>
			<path fill="#EF539E" d="M45.016,14.931c7.973,2.242,11.276,11.243,6.622,21.116c-0.054,0.071-0.116,0.132-0.163,0.205
				c-1.3,1.993-10.439,5.669-22.163-0.386c-1.896-0.98-4.221-0.235-5.197,1.657c-0.977,1.892-0.235,4.219,1.655,5.198
				c0.718,0.37,1.43,0.711,2.141,1.027c-1.028-1.05-1.413-2.642-0.844-4.102c0.773-1.981,3.008-2.965,4.996-2.188
				c12.291,4.799,21.003,0.187,22.089-1.936c0.04-0.075,0.094-0.143,0.14-0.216C57.958,24.801,53.493,16.072,45.016,14.931z"/>
			<path fill="#EF539E" d="M29.876,59.852c7.514-3.994,13.158-8.431,17.218-12.918c-0.406,0.061-0.813,0.114-1.23,0.159
				c-0.982,0.102-2.004,0.146-3.046,0.153c-4.121,3.6-9.509,7.011-16.329,9.942C27.561,58.057,28.688,58.945,29.876,59.852z"/>
			<path fill="#EF539E" d="M44.88,36.896c0.402,0,0.79-0.056,1.165-0.148c-1.922-0.458-3.438-2.079-3.657-4.154
				c-0.252-2.402,1.322-4.573,3.601-5.142c-0.356-0.085-0.726-0.135-1.108-0.135c-2.646,0-4.789,2.146-4.789,4.791
				C40.091,34.752,42.234,36.896,44.88,36.896z"/>
		</g>
	</g>
</g>
<g id="front">
	<g>
		<path fill="#FFFFFF" d="M30,0.667C13.801,0.667,0.667,13.801,0.667,30S13.801,59.333,30,59.333S59.333,46.199,59.333,30
			S46.199,0.667,30,0.667z M27.995,8.492c3.712,0,6.731,3.02,6.731,6.73s-3.02,6.73-6.731,6.73c-3.711,0-6.729-3.02-6.729-6.73
			S24.284,8.492,27.995,8.492z M46.23,34.977c-0.039,0.053-0.086,0.098-0.122,0.152c-0.984,1.508-7.896,4.289-16.762-0.291
			c-1.435-0.74-3.192-0.178-3.932,1.252c-0.739,1.434-0.179,3.193,1.254,3.932c4.363,2.254,8.591,3.154,12.296,3.154
			c0.318,0,0.63-0.01,0.938-0.021c-3.407,3.053-8.004,5.945-13.972,8.354c-26.798-25.283-7.564-30.904,0-28.311
			c0.016-0.01,0.029-0.02,0.044-0.031c0.648,0.166,1.322,0.264,2.02,0.264c3.209,0,5.984-1.855,7.333-4.545
			C45.365,16.91,50.745,25.398,46.23,34.977z"/>
		<circle fill="#FFFFFF" cx="41.12" cy="31.995" r="3.622"/>
		<path fill="#FFFFFF" d="M41.12,35.617c-2.001,0-3.622-1.621-3.622-3.621c0-2.002,1.621-3.623,3.622-3.623s3.623,1.621,3.623,3.623
			C44.743,33.996,43.121,35.617,41.12,35.617z"/>
	</g>
</g>
</svg>
